<?xml version="1.0" standalone="no"?>
<!DOCTYPE svg PUBLIC "-//W3C//DTD SVG 20010904//EN"
 "http://www.w3.org/TR/2001/REC-SVG-20010904/DTD/svg10.dtd">
<svg version="1.0" xmlns="http://www.w3.org/2000/svg"
 width="1971.000000pt" height="1971.000000pt" viewBox="0 0 1971.000000 1971.000000"
 preserveAspectRatio="xMidYMid meet">
<metadata>
Created by potrace 1.14, written by Peter Selinger 2001-2017
</metadata>
<g transform="translate(0.000000,1971.000000) scale(0.100000,-0.100000)"
fill="#000000" stroke="none">
<path d="M6632 14522 c-16 -2 -21 -9 -18 -20 3 -9 8 -39 11 -67 8 -67 14 -108
21 -152 3 -21 7 -51 10 -68 10 -64 16 -85 27 -85 6 0 48 12 93 27 102 33 114
29 104 -29 -5 -24 -11 -63 -15 -88 -4 -24 -8 -47 -10 -50 -1 -3 -6 -25 -9 -50
-4 -25 -24 -139 -45 -253 l-37 -208 32 5 c49 8 129 42 187 80 171 110 263 328
225 536 -30 168 -162 325 -326 389 -73 29 -186 44 -250 33z"/>
<path d="M6505 14492 c-22 -8 -70 -35 -107 -59 -214 -140 -292 -422 -182 -660
74 -160 265 -289 436 -296 61 -2 63 -1 62 23 -3 43 -16 154 -19 160 -1 3 -6
30 -9 60 -6 53 -10 78 -21 148 -3 17 -9 32 -14 32 -4 0 -39 -11 -77 -23 -106
-36 -121 -39 -128 -22 -3 8 1 47 9 87 22 114 23 124 50 273 13 77 31 173 38
213 8 40 11 74 8 76 -3 2 -24 -3 -46 -12z"/>
<path d="M7244 14328 c-2 -4 7 -31 21 -62 14 -30 25 -59 25 -65 0 -12 20 -18
85 -26 28 -3 97 -13 155 -21 111 -15 118 -16 245 -34 44 -5 91 -12 105 -14 14
-3 48 -7 75 -11 28 -3 142 -19 255 -35 113 -16 228 -32 255 -35 28 -4 57 -8
65 -10 8 -2 38 -7 65 -10 112 -13 131 -16 155 -20 14 -2 45 -7 70 -10 25 -3
54 -7 65 -9 11 -2 45 -7 76 -10 31 -4 65 -8 75 -10 21 -4 115 -17 154 -22 44
-5 125 -16 145 -20 11 -2 72 -11 135 -19 63 -9 129 -17 145 -20 78 -12 245
-35 290 -40 28 -4 57 -8 65 -10 8 -2 42 -7 75 -11 33 -3 67 -8 77 -9 9 -2 38
-6 65 -10 26 -4 59 -9 73 -11 14 -2 50 -6 80 -9 30 -4 62 -8 70 -10 8 -2 38
-7 65 -10 28 -4 61 -8 75 -11 14 -2 43 -6 65 -9 22 -3 57 -8 77 -11 21 -2 50
-6 65 -8 49 -7 197 -27 223 -31 46 -7 105 -15 150 -20 114 -15 178 -24 210
-30 8 -2 41 -6 73 -9 126 -15 145 -42 125 -171 -4 -27 -10 -72 -13 -100 -3
-27 -7 -57 -10 -65 -2 -8 -6 -37 -10 -65 -3 -27 -8 -63 -10 -80 -3 -16 -7 -46
-10 -65 -2 -19 -11 -87 -19 -150 -9 -63 -18 -131 -21 -150 -2 -19 -11 -84 -20
-145 -8 -60 -17 -130 -20 -155 -2 -25 -7 -63 -10 -85 -9 -60 -13 -85 -20 -145
-4 -30 -9 -64 -11 -75 -3 -11 -7 -65 -11 -120 -6 -99 -5 -100 13 -79 25 29
562 692 684 844 15 19 68 85 117 145 49 61 228 283 397 495 170 212 315 392
323 400 7 8 29 35 49 60 20 25 43 54 52 65 10 11 60 75 113 141 53 66 108 133
122 148 25 27 27 65 3 67 -73 5 -5979 2 -5982 -3z"/>
<path d="M13393 14118 c-32 -40 -60 -75 -63 -78 -3 -3 -19 -23 -36 -45 -17
-22 -239 -308 -495 -636 -255 -328 -474 -609 -486 -625 -12 -16 -31 -40 -42
-54 -31 -39 -253 -323 -281 -360 -24 -31 -298 -382 -347 -445 -13 -16 -27 -34
-31 -40 -4 -5 -49 -63 -100 -127 -50 -65 -92 -122 -92 -127 0 -5 10 -12 23
-16 118 -33 277 -150 333 -244 10 -17 21 -31 25 -31 6 0 85 131 157 259 14 25
70 122 124 215 54 93 98 173 98 177 0 5 5 9 10 9 6 0 10 5 10 10 0 8 147 267
239 420 11 19 24 42 28 50 3 8 25 47 48 85 23 39 79 135 125 215 46 80 98 170
116 200 40 68 464 802 490 849 11 18 24 41 29 50 43 69 195 342 195 351 0 24
-23 6 -77 -62z"/>
<path d="M7312 13903 c-4 -47 -43 -154 -80 -217 -78 -133 -213 -240 -359 -286
l-51 -16 115 -199 c129 -224 146 -253 178 -310 13 -22 62 -107 110 -190 86
-147 106 -182 144 -247 60 -107 332 -577 376 -653 58 -98 469 -810 653 -1130
63 -110 123 -212 133 -227 11 -14 19 -29 19 -32 0 -3 22 -43 49 -88 43 -73
241 -415 293 -506 10 -18 58 -102 106 -185 49 -84 151 -260 227 -392 76 -132
193 -334 260 -450 66 -115 159 -276 205 -357 72 -127 145 -227 156 -215 2 2
-30 89 -72 193 -78 194 -646 1595 -669 1649 -7 17 -22 53 -33 80 -11 28 -147
363 -302 745 -155 382 -287 709 -295 725 -7 17 -37 89 -65 160 -28 72 -58 144
-65 160 -7 17 -32 77 -55 135 -22 58 -45 114 -50 125 -13 29 -87 211 -170 420
-40 99 -81 200 -93 225 -35 78 -38 108 -14 135 12 14 71 44 132 69 149 59 603
245 640 261 27 12 410 171 479 198 183 74 247 115 191 123 -11 2 -47 8 -80 13
-33 6 -77 13 -97 16 -98 13 -117 16 -173 25 -33 6 -69 12 -80 14 -11 2 -42 7
-70 10 -27 4 -61 8 -75 11 -41 8 -87 15 -225 36 -139 21 -159 24 -245 39 -30
5 -75 12 -100 15 -25 3 -70 10 -100 15 -30 5 -80 12 -110 16 -30 3 -58 8 -61
10 -4 2 -27 6 -50 9 -24 3 -69 10 -99 15 -30 5 -73 12 -94 15 -21 3 -48 7 -60
10 -12 2 -43 7 -71 10 -27 3 -57 8 -65 10 -13 3 -48 8 -137 20 -13 2 -40 6
-61 10 -36 6 -38 5 -40 -22z"/>
<path d="M11170 11469 c-110 -18 -200 -67 -285 -153 -202 -206 -198 -534 9
-740 118 -116 290 -169 465 -142 127 20 268 114 342 229 222 343 -14 798 -421
812 -36 1 -85 -2 -110 -6z m100 -224 c0 -19 60 -122 109 -189 64 -86 91 -147
91 -202 0 -174 -206 -274 -345 -168 -44 33 -85 116 -85 168 1 54 23 102 104
220 37 54 76 120 88 147 20 44 38 56 38 24z"/>
<path d="M8985 11089 c6 -35 130 -366 200 -534 7 -16 29 -75 50 -130 20 -55
43 -113 50 -130 7 -16 88 -226 180 -465 92 -239 189 -491 215 -560 27 -69 78
-199 113 -290 36 -91 88 -226 117 -300 29 -74 65 -166 80 -205 15 -38 30 -84
34 -102 16 -72 71 -70 105 4 12 27 28 57 34 68 31 52 506 872 527 911 10 16
52 90 95 164 43 74 86 150 97 169 11 20 24 41 28 46 4 6 18 30 32 55 14 25 51
90 83 145 32 55 85 147 118 205 33 58 71 122 84 143 23 36 23 37 3 38 -11 1
-23 2 -27 3 -5 1 -30 6 -58 10 -156 25 -328 135 -406 259 -18 29 -34 54 -36
57 -6 7 -39 -33 -200 -240 -176 -226 -190 -241 -231 -242 -34 -1 -29 -4 -248
167 -77 60 -156 121 -174 135 -18 14 -135 104 -260 200 -319 245 -539 412
-579 440 l-33 23 7 -44z"/>
<path d="M6088 7578 c-109 -28 -180 -74 -236 -155 -72 -103 -70 -258 6 -363
41 -58 102 -97 248 -160 181 -78 203 -90 227 -122 17 -23 19 -34 11 -69 -8
-36 -15 -46 -54 -67 -83 -45 -220 -18 -344 67 l-44 31 -76 -89 -76 -89 41 -35
c46 -40 151 -93 224 -114 70 -19 218 -24 291 -8 131 28 239 109 287 213 30 65
30 207 0 272 -41 91 -108 141 -278 208 -218 87 -249 108 -247 174 3 106 203
125 342 31 19 -12 38 -23 41 -23 9 0 129 150 129 161 0 15 -85 77 -143 103
-115 52 -233 64 -349 34z"/>
<path d="M10039 7523 c0 -5 -2 -15 -3 -23 -2 -8 -6 -40 -10 -70 -12 -99 -18
-130 -27 -131 -5 -1 -13 -3 -19 -4 -5 -1 -32 -3 -59 -4 l-49 -1 0 -100 -1
-100 62 0 62 0 0 -202 c-1 -273 14 -345 87 -419 54 -54 109 -72 218 -73 120
-1 203 18 195 44 -3 10 -8 29 -11 42 -9 42 -24 121 -24 124 0 2 -28 1 -63 -3
-57 -5 -65 -3 -94 21 -17 15 -35 40 -38 57 -5 24 -9 307 -6 392 1 15 13 17
106 17 l105 0 0 105 0 105 -100 -2 c-55 0 -103 2 -106 5 -4 3 -6 56 -6 116 l0
111 -109 0 c-60 0 -109 -3 -110 -7z"/>
<path d="M12726 7373 c-65 -19 -107 -49 -163 -114 -65 -77 -116 -155 -168
-258 -25 -49 -51 -94 -59 -98 -7 -4 -37 -28 -65 -53 -178 -154 -375 -261 -559
-305 -52 -12 -52 -12 -46 9 14 48 126 267 173 339 57 87 162 198 231 244 l45
30 55 -48 c30 -27 59 -48 64 -46 19 6 49 55 49 81 0 57 -126 171 -220 201 -70
22 -148 14 -214 -22 -91 -49 -228 -202 -304 -338 -18 -32 -48 -64 -83 -90 -31
-22 -63 -47 -72 -55 -9 -8 -43 -35 -76 -60 -245 -187 -466 -293 -565 -271 -32
7 -32 147 0 232 36 96 34 95 126 64 100 -34 141 -30 251 25 60 29 101 59 152
110 142 142 133 213 -41 343 -108 80 -236 101 -325 52 -111 -60 -232 -196
-291 -327 -57 -128 -92 -332 -68 -403 40 -121 199 -215 340 -202 109 10 348
149 512 299 16 16 33 28 37 28 4 0 6 -24 6 -52 -2 -82 16 -121 85 -184 161
-146 256 -139 522 39 50 33 124 88 166 123 43 35 79 64 80 64 2 0 4 -33 4 -73
0 -61 5 -80 28 -120 29 -49 99 -108 177 -149 34 -17 61 -23 110 -23 81 1 141
31 228 116 76 73 107 113 157 203 l40 71 110 55 c61 30 124 61 140 67 38 16
175 63 195 68 8 2 51 12 95 23 44 11 114 26 155 32 41 7 84 14 95 17 11 2 92
5 180 7 294 6 454 -29 671 -149 57 -32 79 -29 95 12 29 74 12 194 -35 256 -49
65 -236 141 -396 162 -99 13 -287 5 -395 -16 -27 -5 -60 -11 -72 -13 -205 -40
-558 -201 -734 -338 -41 -31 -51 -34 -44 -15 8 24 15 83 20 160 12 186 -87
296 -270 302 -50 2 -99 -2 -129 -12z m258 -99 c9 -8 19 -27 22 -40 14 -57 -16
-202 -67 -321 l-19 -46 -53 6 c-62 8 -94 30 -125 84 l-22 40 25 45 c32 57 62
84 110 101 51 18 79 68 66 115 -9 31 -8 32 19 32 16 0 36 -7 44 -16z m-1849
-105 c-29 -80 -88 -151 -165 -197 -36 -21 -110 -40 -110 -27 0 40 234 265 275
265 12 0 12 -7 0 -41z m1535 -279 c0 -5 16 -28 36 -49 26 -29 47 -42 82 -50
25 -5 50 -7 54 -5 19 12 4 -18 -41 -82 -86 -121 -157 -184 -238 -212 -38 -13
-39 -8 -24 63 5 22 12 56 15 75 3 19 15 60 26 90 12 30 25 66 30 80 18 54 41
100 50 100 6 0 10 -4 10 -10z"/>
<path d="M7230 7311 c-46 -10 -73 -24 -142 -77 -31 -24 -59 -41 -61 -37 -2 5
-8 29 -11 55 l-7 48 -109 -1 -109 0 0 -443 0 -443 132 1 132 1 0 299 0 298 30
25 c59 49 131 66 177 42 44 -24 49 -62 49 -374 l0 -293 132 2 132 1 1 299 1
300 29 23 c82 67 172 72 204 12 19 -35 21 -57 21 -350 l0 -287 132 2 132 1 1
298 c0 164 -3 323 -8 354 -26 166 -126 257 -273 248 -65 -4 -77 -7 -115 -22
-30 -12 -119 -79 -137 -102 -12 -14 -15 -14 -28 4 -76 103 -178 141 -305 116z"/>
<path d="M8595 7313 c-97 -18 -285 -91 -285 -112 0 -9 69 -142 82 -158 8 -10
21 -7 57 11 101 51 206 66 262 36 23 -13 59 -67 59 -90 0 -12 -21 -19 -87 -29
-179 -27 -307 -85 -364 -164 -64 -89 -56 -240 17 -326 96 -112 273 -117 416
-12 47 35 49 34 62 -30 l6 -26 107 1 108 1 -1 305 c-1 335 -6 372 -63 462 -56
88 -140 129 -271 133 -47 1 -94 0 -105 -2z m175 -568 c0 -64 -3 -77 -22 -95
-50 -47 -111 -63 -169 -45 -56 18 -67 94 -21 140 30 31 54 42 127 61 88 22 85
24 85 -61z"/>
<path d="M9639 7292 c-30 -14 -70 -48 -104 -85 l-55 -62 -1 38 c-1 20 -3 42
-4 47 -1 6 -3 23 -4 40 l-1 30 -109 -1 -109 0 0 -443 0 -444 131 2 132 1 0
260 c0 253 1 261 23 297 47 76 129 124 192 113 79 -13 73 -18 90 70 33 161 34
143 -9 155 -55 15 -116 8 -172 -18z"/>
</g>
</svg>
